<?xml version="1.0" standalone="no"?>
<!DOCTYPE svg PUBLIC "-//W3C//DTD SVG 20010904//EN"
 "http://www.w3.org/TR/2001/REC-SVG-20010904/DTD/svg10.dtd">
<svg version="1.0" xmlns="http://www.w3.org/2000/svg"
 width="1078.000000pt" height="201.000000pt" viewBox="0 0 1078.000000 201.000000"
 preserveAspectRatio="xMidYMid meet">

<g transform="translate(0.000000,201.000000) scale(0.100000,-0.100000)"
fill="#000000" stroke="none">
<path d="M2115 1975 c-5 -2 -48 -15 -95 -30 -337 -108 -675 -408 -975 -865
-81 -123 -258 -421 -267 -450 -5 -17 6 -35 -176 293 l-137 248 -213 0 c-118 0
-216 -1 -218 -4 -3 -3 113 -209 486 -854 l94 -163 186 0 186 0 123 258 c225
473 421 828 574 1042 150 209 316 392 457 502 34 26 34 27 10 27 -14 0 -29 -2
-35 -4z"/>
<path d="M2910 820 l0 -670 135 0 135 0 -2 668 -3 667 -132 3 -133 3 0 -671z"/>
<path d="M6450 795 l0 -645 380 0 380 0 0 75 0 75 -290 0 -290 0 0 570 0 570
-90 0 -90 0 0 -645z"/>
<path d="M10500 795 l0 -645 85 0 85 0 -2 643 -3 642 -82 3 -83 3 0 -646z"/>
<path d="M1995 1109 c-88 -13 -213 -77 -269 -140 -55 -61 -101 -150 -117 -227
-17 -82 -7 -244 19 -311 66 -168 208 -277 394 -301 145 -18 274 19 363 105
l45 44 0 -64 0 -65 135 0 135 0 -2 477 -3 478 -130 0 -130 0 -3 -68 -3 -69
-44 41 c-57 53 -125 86 -206 100 -73 12 -97 12 -184 0z m238 -226 c65 -23 122
-74 155 -137 22 -43 27 -64 27 -131 0 -88 -14 -125 -69 -183 -46 -50 -101 -74
-179 -80 -164 -12 -281 101 -282 274 -1 193 171 320 348 257z"/>
<path d="M3686 1110 c-129 -23 -280 -136 -338 -251 -76 -151 -76 -342 0 -483
58 -108 191 -207 317 -236 68 -16 248 -16 315 0 167 39 314 170 361 320 23 74
27 197 10 274 -38 162 -173 305 -340 357 -75 23 -247 33 -325 19z m206 -220
c136 -38 226 -227 174 -364 -42 -110 -113 -165 -223 -174 -151 -12 -259 88
-271 249 -14 192 147 337 320 289z"/>
<path d="M5525 1109 c-84 -12 -179 -62 -245 -128 -71 -72 -106 -132 -130 -228
-93 -360 168 -664 534 -622 97 10 171 44 230 103 l46 45 0 -64 0 -65 135 0
135 0 0 474 0 474 -47 5 c-72 8 -92 8 -160 1 l-63 -6 0 -66 0 -66 -37 36 c-97
91 -238 129 -398 107z m241 -224 c106 -31 183 -134 192 -257 4 -59 1 -75 -22
-122 -53 -108 -152 -163 -277 -154 -82 6 -143 38 -187 99 -62 84 -68 216 -14
311 66 117 178 162 308 123z"/>
<path d="M7680 1108 c-149 -15 -266 -90 -349 -223 -99 -157 -98 -382 1 -537
36 -57 126 -141 179 -169 97 -49 276 -64 394 -34 248 65 398 303 352 560 -29
162 -125 290 -271 360 -84 40 -190 55 -306 43z m213 -187 c62 -30 120 -91 154
-159 24 -49 27 -68 27 -147 1 -107 -18 -158 -85 -230 -153 -166 -421 -123
-518 84 -22 48 -26 69 -26 151 0 84 3 102 28 152 35 70 112 143 176 163 66 21
185 15 244 -14z"/>
<path d="M4508 1102 l-38 -3 0 -475 0 -474 145 0 145 0 0 263 c0 254 1 263 24
313 43 93 133 144 253 144 l63 0 0 121 0 122 -83 -5 c-114 -6 -179 -44 -249
-148 -16 -24 -16 -22 -14 58 1 50 -2 83 -9 83 -22 3 -202 4 -237 1z"/>
<path d="M8675 1092 c-160 -55 -279 -186 -315 -347 -15 -66 -15 -210 0 -265
36 -135 130 -247 257 -308 72 -34 86 -37 184 -40 59 -2 130 1 159 7 75 16 157
59 210 111 51 49 105 134 96 149 -4 5 -36 19 -73 32 l-67 22 -15 -24 c-66
-101 -145 -143 -266 -144 -68 0 -89 4 -137 28 -65 32 -121 90 -151 156 -32 68
-31 236 1 302 33 68 83 121 138 149 43 22 62 25 150 25 94 0 104 -2 149 -30
27 -17 65 -51 84 -75 19 -25 39 -44 45 -43 13 2 130 44 134 48 7 6 -27 62 -64
106 -53 64 -124 114 -196 138 -81 27 -248 29 -323 3z"/>
<path d="M9650 1092 c-108 -41 -175 -92 -230 -174 -161 -241 -106 -573 118
-717 89 -57 153 -73 277 -69 96 3 117 7 166 31 31 15 77 46 103 68 l46 41 0
-61 0 -61 95 0 95 0 0 473 c0 261 -2 476 -4 478 -2 2 -45 3 -95 1 l-91 -3 0
-69 0 -69 -43 42 c-23 23 -69 55 -102 72 -54 27 -71 29 -175 32 -90 2 -125 -1
-160 -15z m268 -158 c128 -42 211 -156 220 -303 6 -108 -16 -176 -79 -246 -68
-74 -130 -100 -239 -100 -99 0 -152 20 -213 79 -61 60 -90 128 -95 222 -7 134
33 229 129 306 72 58 178 74 277 42z"/>
</g>
</svg>
